HIERARCHY
ROOT Hips
{
	OFFSET	0.00	0.00	0.00
	CHANNELS 6 Xposition Yposition Zposition Zrotation Xrotation Yrotation
	JOINT LeftUpLeg
	{
		OFFSET	 0.126116	-0.014019	-0.065224
		CHANNELS 3 Zrotation Xrotation Yrotation
		JOINT LeftLeg
		{
			OFFSET	 0.000000	 0.000000	 0.569914
			CHANNELS 3 Zrotation Xrotation Yrotation
			JOINT LeftFoot
			{
				OFFSET	 0.000000	 0.000000	 0.544423
				CHANNELS 3 Zrotation Xrotation Yrotation
				JOINT LeftToeBase
				{
					OFFSET	 0.000000	 0.000000	 0.207117
					CHANNELS 3 Zrotation Xrotation Yrotation
					End Site
					{
						OFFSET	 0.000000	 0.000000	 0.207117
					}
				}
			}
		}
	}
	JOINT RightUpLeg
	{
		OFFSET	-0.124023	-0.008373	-0.065224
		CHANNELS 3 Zrotation Xrotation Yrotation
		JOINT RightLeg
		{
			OFFSET	 0.000000	 0.000000	 0.570047
			CHANNELS 3 Zrotation Xrotation Yrotation
			JOINT RightFoot
			{
				OFFSET	 0.000000	 0.000000	 0.544354
				CHANNELS 3 Zrotation Xrotation Yrotation
				JOINT RightToeBase
				{
					OFFSET	 0.000000	 0.000000	 0.207540
					CHANNELS 3 Zrotation Xrotation Yrotation
					End Site
					{
						OFFSET	 0.000000	 0.000000	 0.207540
					}
				}
			}
		}
	}
	JOINT Spine
	{
		OFFSET	 0.000184	-0.007763	 0.117403
		CHANNELS 3 Zrotation Xrotation Yrotation
		JOINT Spine1
		{
			OFFSET	 0.000000	 0.000000	 0.137269
			CHANNELS 3 Zrotation Xrotation Yrotation
			JOINT Spine2
			{
				OFFSET	 0.000000	 0.000000	 0.156879
				CHANNELS 3 Zrotation Xrotation Yrotation
				JOINT LeftShoulder
				{
					OFFSET	 0.080501	-0.002496	 0.160144
					CHANNELS 3 Zrotation Xrotation Yrotation
					JOINT LeftArm
					{
						OFFSET	 0.000000	 0.000000	 0.164363
						CHANNELS 3 Zrotation Xrotation Yrotation
						JOINT LeftForeArm
						{
							OFFSET	 0.000000	 0.000000	 0.364576
							CHANNELS 3 Zrotation Xrotation Yrotation
							JOINT LeftHand
							{
								OFFSET	 0.000000	 0.000000	 0.360812
								CHANNELS 3 Zrotation Xrotation Yrotation
								JOINT LeftHandIndex1
								{
									OFFSET	 0.000000	 0.000000	 0.086006
									CHANNELS 3 Zrotation Xrotation Yrotation
									JOINT LeftHandIndex2
									{
										OFFSET	 0.000000	 0.000000	 0.047236
										CHANNELS 3 Zrotation Xrotation Yrotation
										JOINT LeftHandIndex3
										{
											OFFSET	-0.004284	-0.000551	 0.038166
											CHANNELS 3 Zrotation Xrotation Yrotation
											End Site
											{
												OFFSET	-0.004284	-0.000551	 0.038166
											}
										}
									}
								}
							}
						}
					}
				}
				JOINT Neck
				{
					OFFSET	 0.000000	 0.000000	 0.176489
					CHANNELS 3 Zrotation Xrotation Yrotation
					JOINT Head
					{
						OFFSET	 0.000000	-0.001747	 0.077940
						CHANNELS 3 Zrotation Xrotation Yrotation
						End Site
						{
							OFFSET	 0.000000	-0.001747	 0.077940
						}
					}
				}
				JOINT RightShoulder
				{
					OFFSET	-0.080363	 0.000306	 0.159706
					CHANNELS 3 Zrotation Xrotation Yrotation
					JOINT RightArm
					{
						OFFSET	 0.000000	 0.000000	 0.164196
						CHANNELS 3 Zrotation Xrotation Yrotation
						JOINT RightForeArm
						{
							OFFSET	 0.000000	 0.000000	 0.365611
							CHANNELS 3 Zrotation Xrotation Yrotation
							JOINT RightHand
							{
								OFFSET	 0.000000	 0.000000	 0.360648
								CHANNELS 3 Zrotation Xrotation Yrotation
								JOINT RightHandIndex1
								{
									OFFSET	 0.000000	 0.000000	 0.069977
									CHANNELS 3 Zrotation Xrotation Yrotation
									JOINT RightHandIndex2
									{
										OFFSET	 0.000000	 0.000000	 0.052305
										CHANNELS 3 Zrotation Xrotation Yrotation
										JOINT RightHandIndex3
										{
											OFFSET	 0.009002	-0.000782	 0.042196
											CHANNELS 3 Zrotation Xrotation Yrotation
											End Site
											{
												OFFSET	 0.009002	-0.000782	 0.042196
											}
										}
									}
								}
							}
						}
					}
				}
			}
		}
	}
}
MOTION
Frames:    12
Frame Time: 0.03333334
 0.014040	 0.062678	 1.202748	 4.510407	-1.349144	-2.736990	 0.060028	-12.388700	-170.995000	 0.711997	-38.445430	 0.178498	 50.962710	 79.795410	-55.166540	-2.370449	 31.439280	-0.065950	-4.300180	-29.418790	-176.803300	 10.693850	-52.734950	 9.158342	 14.210690	 75.109500	-9.721165	 2.358363	 33.088950	 0.105295	-6.149359	 8.701781	 2.136753	-2.039803	 1.916183	-1.513816	 3.320718	-1.895370	 1.627173	-93.863780	 58.900750	 175.555200	 24.594850	 44.162010	-25.445470	-1.328257	-2.468707	-22.229950	-1.712624	-26.077960	-7.428654	-4.870533	 19.223960	-2.787721	-3.882610	 21.458970	 2.203856	-4.807173	 5.558332	 0.146222	-0.098810	-5.047780	 0.172455	 1.121752	 1.979603	 2.816740	 89.803500	 61.617420	-179.949000	-20.518070	 52.856960	 13.072440	-1.550942	-1.839934	 9.464490	-4.734663	-11.814030	 0.677922	 6.298101	 25.339280	-0.557326	 1.819336	 45.229940	-6.934050	 0.454348	 24.590800	 3.604890
 0.013888	 0.060645	 1.202743	 4.687984	-1.258624	-2.732909	-0.175369	-12.403510	-171.028700	 0.759959	-38.422420	 0.253079	 50.876530	 79.816930	-55.168170	-2.370141	 31.490220	-0.067108	-4.694268	-29.704210	-176.813700	 10.851900	-52.556240	 9.264300	 16.350640	 76.437380	-12.100680	 2.358539	 33.062790	 0.104687	-6.272527	 8.649845	 2.104339	-2.031601	 1.863332	-1.496119	 3.291420	-1.939677	 1.624979	-93.896380	 58.919480	 175.483500	 24.792920	 43.999680	-25.514240	-1.493513	-2.437832	-22.542550	-1.784727	-26.346270	-7.764497	-4.870391	 19.230720	-2.788828	-3.881188	 21.477190	 2.202405	-4.806846	 5.562192	 0.145992	-0.089108	-5.059373	 0.177418	 1.123685	 1.940423	 2.780851	 89.793310	 61.630120	-179.973300	-20.403270	 52.948620	 12.791270	-1.609788	-1.869030	 9.559729	-4.737277	-11.947990	 0.639257	 6.295919	 25.108180	-0.550294	 1.851023	 44.977900	-6.962354	 0.490552	 24.432660	 3.586420
 0.013344	 0.052348	 1.202664	 5.247294	-0.887388	-2.735573	-0.692445	-12.387430	-171.087500	 1.082390	-38.314330	 0.452396	 50.655410	 79.885670	-55.179360	-2.369191	 31.649390	-0.070709	-6.018518	-30.836470	-176.860000	 11.433590	-51.731100	 9.627198	 26.781390	 80.264950	-23.382220	 2.358936	 33.005050	 0.103336	-6.634081	 8.409945	 1.980649	-2.013900	 1.711634	-1.405079	 3.186537	-2.099702	 1.601195	-94.011740	 58.965070	 175.231700	 25.317050	 43.395010	-25.714080	-1.907771	-2.397143	-23.724020	-1.911177	-27.342630	-8.671922	-4.868354	 19.289520	-2.794011	-3.875493	 21.549920	 2.196618	-4.805556	 5.577459	 0.145096	-0.059319	-5.090117	 0.202154	 1.112545	 1.817348	 2.680614	 89.753340	 61.690870	 179.931300	-20.018930	 53.285690	 11.794360	-1.890227	-1.981123	 9.867352	-4.815321	-12.455830	 0.489220	 6.286729	 24.292650	-0.541242	 1.955537	 44.128190	-7.055440	 0.639493	 23.777310	 3.511290
 0.012749	 0.042006	 1.202477	 5.736320	-0.432123	-2.761839	-1.156702	-12.315180	-171.144800	 1.277820	-38.153470	 0.571530	 50.552220	 79.952430	-55.210460	-2.368365	 31.786410	-0.073810	-7.321539	-32.157140	-176.945100	 12.002840	-50.534750	 9.917389	 45.982300	 82.941030	-43.503470	 2.359024	 32.992250	 0.103041	-6.911126	 8.083760	 1.839018	-2.011718	 1.604436	-1.270810	 3.075753	-2.271916	 1.554030	-94.132220	 58.984630	 174.972300	 25.608900	 42.708480	-25.905460	-2.114466	-2.444458	-24.983370	-1.853829	-28.449440	-9.236857	-4.864104	 19.397880	-2.801112	-3.868686	 21.636810	 2.189702	-4.804018	 5.595518	 0.144039	-0.034549	-5.108178	 0.237606	 1.076356	 1.710267	 2.612091	 89.706600	 61.775520	 179.819100	-19.643870	 53.650450	 10.762290	-2.284228	-2.103074	 10.105390	-4.988548	-13.028750	 0.314508	 6.274820	 23.446950	-0.553097	 2.054057	 43.300840	-7.142760	 0.821617	 22.965530	 3.421339
 0.012245	 0.029474	 1.202182	 6.091985	-0.004600	-2.874555	-1.493992	-12.007460	-171.127400	 1.426496	-37.849160	 0.658902	 50.908830	 80.083820	-55.670560	-2.367311	 31.957920	-0.077712	-8.146359	-33.489580	-176.924000	 12.351250	-48.952930	 9.961174	 68.082260	 83.515080	-66.538110	 2.359684	 32.894490	 0.100774	-7.099350	 7.734773	 1.787176	-2.008938	 1.632615	-1.128515	 2.972871	-2.470367	 1.494054	-94.239540	 58.992180	 174.742500	 25.725350	 41.906150	-26.244780	-2.431860	-2.423673	-26.197520	-1.893207	-29.684930	-9.433155	-4.857815	 19.546980	-2.808536	-3.860818	 21.736850	 2.181718	-4.800740	 5.634139	 0.141779	-0.017489	-5.134846	 0.271269	 1.022362	 1.611285	 2.572431	 89.649540	 61.856130	 179.681500	-19.250440	 54.001030	 9.697810	-2.792058	-2.241783	 10.303940	-5.296663	-13.634210	-0.016914	 6.260880	 22.554380	-0.575366	 2.144871	 42.514510	-7.222876	 1.019023	 22.072780	 3.326269
 0.011834	 0.014688	 1.201753	 6.313918	 0.402352	-3.078660	-1.698357	-11.456110	-171.028200	 1.526124	-37.374530	 0.712347	 51.724940	 80.260070	-56.561990	-2.365989	 32.169600	-0.082546	-8.465201	-34.787470	-176.754900	 12.531370	-46.888830	 9.783174	 77.177450	 82.843550	-76.519550	 2.360959	 32.704360	 0.096374	-7.195382	 7.353351	 1.830363	-2.005035	 1.798647	-0.977709	 2.877337	-2.697458	 1.420679	-94.335080	 58.986930	 174.539600	 25.659600	 40.981660	-26.767880	-2.873063	-2.310955	-27.277740	-1.994589	-31.077810	-9.224631	-4.849193	 19.742430	-2.816473	-3.851672	 21.852910	 2.172413	-4.795538	 5.695394	 0.138188	-0.008270	-5.171175	 0.303713	 0.949557	 1.518650	 2.562557	 89.580350	 61.934150	 179.514000	-18.826180	 54.330780	 8.629461	-3.435628	-2.384311	 10.387850	-5.760796	-14.273100	-0.523369	 6.244207	 21.593790	-0.609072	 2.230023	 41.755930	-7.297639	 1.236128	 21.075630	 3.224713
 0.011300	-0.003116	 1.201116	 6.464659	 0.716836	-3.280943	-1.887887	-10.568840	-170.952900	 1.603575	-36.755840	 0.748596	 52.347020	 80.437230	-57.235130	-2.363470	 32.562550	-0.091556	-8.310197	-35.867160	-176.495100	 12.265950	-44.153400	 9.156547	 90.978760	 81.771640	-91.011650	 2.359166	 32.971280	 0.102554	-7.292407	 6.989097	 1.893970	-2.000932	 2.153814	-0.832248	 2.794121	-2.988146	 1.349198	-94.410000	 58.977980	 174.381500	 25.300420	 39.975520	-27.474550	-3.266487	-2.185354	-28.141100	-2.193719	-32.427140	-9.012888	-4.839240	 19.951660	-2.821238	-3.840651	 21.992280	 2.161221	-4.786616	 5.800288	 0.132017	 0.004113	-5.215259	 0.327050	 0.882262	 1.413227	 2.541823	 89.516170	 61.995720	 179.358000	-18.287720	 54.642490	 7.468319	-4.156954	-2.498808	 10.287040	-6.272241	-15.070160	-1.186105	 6.224390	 20.511830	-0.650159	 2.349793	 40.652390	-7.402188	 1.471005	 19.979000	 3.118456
 0.010644	-0.023322	 1.200225	 6.533286	 0.922612	-3.474511	-2.053797	-9.355284	-170.901300	 1.656227	-35.983080	 0.765961	 52.580640	 80.591820	-57.492630	-2.359600	 33.143550	-0.104990	-7.585905	-36.580660	-176.073700	 11.627240	-40.728320	 8.153756	 106.730600	 79.874900	-107.152800	 2.353859	 33.730860	 0.120312	-7.386189	 6.653860	 1.978010	-1.995190	 2.691793	-0.697964	 2.726159	-3.333581	 1.282160	-94.460380	 58.965140	 174.276100	 24.658470	 38.949130	-28.369680	-3.601750	-2.049717	-28.668740	-2.487714	-33.693150	-8.803703	-4.828122	 20.170590	-2.822421	-3.827839	 22.153590	 2.148209	-4.773842	 5.950238	 0.123173	 0.019678	-5.266701	 0.339918	 0.822903	 1.296539	 2.509880	 89.458890	 62.037680	 179.218500	-17.634190	 54.908620	 6.291474	-4.950856	-2.555902	 9.922452	-6.830413	-16.009170	-2.006004	 6.201388	 19.324830	-0.698233	 2.500543	 39.199970	-7.532705	 1.718951	 18.801600	 3.010498
 0.009789	-0.044791	 1.199044	 6.647131	 1.027073	-3.630160	-2.299549	-7.936075	-170.902200	 1.742509	-35.120860	 0.799647	 51.551280	 80.617030	-56.499120	-2.352710	 34.112260	-0.127702	-7.067707	-36.886410	-175.705700	 11.230650	-36.720980	 7.235954	 106.165300	 78.770450	-107.001800	 2.347010	 34.646620	 0.142040	-7.566886	 6.503565	 2.043742	-1.992238	 3.096783	-0.574981	 2.660802	-3.693969	 1.218214	-94.500630	 58.942480	 174.194200	 23.816660	 38.030010	-29.301110	-3.750729	-1.980228	-28.819870	-2.901529	-35.203340	-8.923324	-4.828878	 20.332130	-2.874446	-3.813599	 22.332080	 2.133750	-4.756947	 6.148060	 0.111446	 0.047965	-5.318437	 0.348379	 0.781647	 1.201262	 2.415199	 89.412460	 62.033860	 179.106200	-16.919240	 55.103180	 5.064404	-5.688622	-2.537548	 9.357220	-7.281138	-17.172010	-2.791538	 6.182995	 18.130170	-0.713741	 2.649695	 37.689290	-7.660548	 1.964627	 17.615350	 2.907908
 0.008740	-0.066887	 1.197493	 6.798275	 1.050753	-3.758075	-2.600688	-6.379933	-170.940500	 1.854493	-34.200940	 0.844271	 49.390110	 80.520000	-54.378890	-2.342662	 35.404010	-0.158637	-6.801161	-36.865070	-175.428300	 11.113820	-32.419810	 6.430202	 97.460800	 78.326420	-98.799870	 2.338533	 35.699100	 0.167473	-7.816559	 6.499696	 2.096598	-1.987569	 3.376764	-0.459692	 2.594040	-4.059713	 1.154762	-94.533230	 58.911750	 174.129900	 22.879190	 37.258080	-30.207580	-3.756234	-1.967368	-28.699210	-3.442049	-36.930250	-9.329433	-4.839009	 20.449670	-2.967882	-3.798008	 22.526610	 2.117915	-4.736493	 6.386799	 0.097210	 0.086798	-5.371058	 0.353420	 0.752627	 1.122365	 2.269348	 89.373940	 61.993320	 179.014500	-16.144810	 55.224680	 3.811238	-6.393795	-2.459913	 8.656318	-7.656525	-18.527520	-3.564654	 6.168798	 16.914340	-0.703685	 2.797734	 36.112850	-7.786067	 2.210913	 16.407010	 2.809551
 0.007174	-0.088218	 1.195456	 6.932895	 1.042321	-3.731243	-2.944146	-4.913001	-171.145700	 2.055581	-33.463110	 0.939152	 44.710530	 80.044540	-49.774330	-2.324665	 37.444920	-0.209140	-6.551355	-36.761090	-175.355900	 10.775350	-28.639680	 5.586026	 80.959750	 78.316510	-82.366120	 2.336085	 35.987430	 0.174545	-8.097686	 6.468117	 2.049145	-1.956051	 3.726231	-0.390169	 2.517336	-4.405406	 1.093663	-94.538640	 58.990700	 174.105200	 22.037910	 36.756340	-31.095470	-3.766630	-1.943975	-28.481900	-4.182685	-38.770330	-9.913569	-4.853382	 20.527810	-3.074556	-3.783653	 22.704870	 2.103335	-4.713153	 6.658257	 0.080909	 0.125577	-5.419445	 0.332355	 0.741145	 1.067050	 2.148491	 89.357680	 61.882820	 178.979500	-15.447320	 55.242310	 2.523362	-7.008533	-2.463176	 8.329459	-8.062534	-20.005250	-4.268744	 6.169115	 15.722910	-0.621860	 2.904898	 34.921550	-7.875999	 2.447654	 15.228090	 2.719376
 0.005060	-0.109923	 1.192434	 7.057022	 1.012335	-3.599714	-3.310921	-3.476085	-171.471200	 2.320035	-32.940200	 1.070052	 39.286590	 79.331250	-44.444950	-2.297982	 40.008470	-0.275853	-6.278348	-37.224330	-175.409100	 10.398590	-26.158120	 4.968969	 61.353450	 77.428110	-62.622220	 2.338005	 35.762220	 0.169023	-8.402510	 6.419978	 1.933901	-1.905250	 4.132321	-0.349970	 2.429520	-4.743354	 1.032130	-94.525790	 59.144440	 174.107000	 21.282510	 36.463130	-31.833590	-3.793396	-1.936440	-28.569300	-5.095641	-40.699470	-10.650560	-4.870725	 20.580030	-3.191036	-3.770001	 22.873600	 2.089477	-4.687623	 6.954072	 0.063008	 0.164589	-5.465418	 0.293513	 0.738789	 1.027650	 2.043284	 89.356510	 61.724170	 178.982500	-14.800090	 55.209990	 1.010580	-7.551314	-2.638831	 8.615818	-8.503319	-21.576940	-4.938748	 6.181160	 14.538110	-0.491530	 2.986867	 33.980430	-7.944230	 2.679169	 14.059190	 2.635423
